<mxfile host="app.diagrams.net" modified="2024-07-05T04:19:27.464Z" agent="Mozilla/5.0 (Windows NT 10.0; Win64; x64) AppleWebKit/537.36 (KHTML, like Gecko) Chrome/126.0.0.0 Safari/537.36 Edg/126.0.0.0" version="24.6.4" etag="k47kFTkpMx6t1PeuSeO-" type="github">
  <diagram name="Page-1" id="px0M8c1WFxO2uGNrSp4d">
    <mxGraphModel>
      <root>
        <mxCell id="0" />
        <mxCell id="1" parent="0" />
      </root>
    </mxGraphModel>
  </diagram>
</mxfile>
